<?xml version="1.0" encoding="UTF-8" standalone="no"?>
<svg width="40px" height="40px" viewBox="0 0 40 40" version="1.1" xmlns="http://www.w3.org/2000/svg" xmlns:xlink="http://www.w3.org/1999/xlink">
    <!-- Generator: Sketch 40.3 (33839) - http://www.bohemiancoding.com/sketch -->
    <title>Group 8</title>
    <desc>Created with Sketch.</desc>
    <defs>
        <linearGradient x1="43.9538043%" y1="0%" x2="0%" y2="41.5803329%" id="linearGradient-1">
            <stop stop-color="#FFFFFF" offset="0%"></stop>
            <stop stop-color="#FFFFFF" stop-opacity="0" offset="100%"></stop>
        </linearGradient>
    </defs>
    <g id="1.login" stroke="none" stroke-width="1" fill="none" fill-rule="evenodd">
        <g id="1.2-login-loading" transform="translate(-579.000000, -517.000000)">
            <g id="Group-8" transform="translate(579.000000, 517.000000)">
                <g id="Group-4" fill="#009BEF">
                    <rect id="Rectangle-Copy" x="0" y="0" width="40" height="40" rx="20"></rect>
                </g>
                <g id="Group-7" transform="translate(9.000000, 8.000000)" stroke="url(#linearGradient-1)" stroke-width="4" stroke-linecap="round" stroke-linejoin="round">
                    <path d="M0,11.5 C0,17.8512746 5.14872538,23 11.5,23 L11.5,23 C17.8512746,23 23,17.8512746 23,11.5 C23,5.14872538 17.8512746,0 11.5,0" id="Oval-8"></path>
                    <path d="M0,11.5 C0,17.8512746 5.14872538,23 11.5,23 L11.5,23 M23,11.5 C23,5.14872538 17.8512746,0 11.5,0" id="Oval-8-Copy" transform="translate(11.500000, 11.500000) scale(-1, 1) translate(-11.500000, -11.500000) "></path>
                </g>
            </g>
        </g>
    </g>
</svg>