<?xml version="1.0" encoding="UTF-8"?>
<svg width="26px" height="24px" viewBox="0 0 26 24" version="1.1" xmlns="http://www.w3.org/2000/svg" xmlns:xlink="http://www.w3.org/1999/xlink">
    <!-- Generator: Sketch 46.2 (44496) - http://www.bohemiancoding.com/sketch -->
    <title>Arrow down</title>
    <desc>Created with Sketch.</desc>
    <defs></defs>
    <g id="Page-1" stroke="none" stroke-width="1" fill="none" fill-rule="evenodd">
        <g id="Artboard" transform="translate(-1147.000000, -423.000000)" fill="#AEAEAE">
            <g id="Arrow-down" transform="translate(1159.736441, 435.000000) scale(1, -1) translate(-1159.736441, -435.000000) translate(1147.176974, 423.000000)">
                <polygon id="SVGID_1_" points="7.74500476 15 12.5594672 10.3 17.3739296 15 18.8392008 13.6 12.5594672 7.5 6.27973359 13.6"></polygon>
                <path d="M12.5594672,2 C18.3158896,2 23.0256898,6.5 23.0256898,12 C23.0256898,17.5 18.3158896,22 12.5594672,22 C6.80304472,22 2.09324453,17.5 2.09324453,12 C2.09324453,6.5 6.80304472,2 12.5594672,2 L12.5594672,2 Z M12.5594672,0 C5.65176023,0 0,5.4 0,12 C0,18.6 5.65176023,24 12.5594672,24 C19.4671741,24 25.1189343,18.6 25.1189343,12 C25.1189343,5.4 19.4671741,0 12.5594672,0 L12.5594672,0 L12.5594672,0 Z" id="Shape"></path>
            </g>
        </g>
    </g>
</svg>