<?xml version="1.0" encoding="UTF-8"?>
<svg width="23px" height="22px" viewBox="0 0 23 22" version="1.1" xmlns="http://www.w3.org/2000/svg" xmlns:xlink="http://www.w3.org/1999/xlink">
    <!-- Generator: Sketch 46.2 (44496) - http://www.bohemiancoding.com/sketch -->
    <title>error</title>
    <desc>Created with Sketch.</desc>
    <defs>
        <polygon id="path-1" points="0 22.9995 0 0.9675 22.033 0.9675 22.033 22.9995"></polygon>
        <polygon id="path-3" points="0 23.0328 22.033 23.0328 22.033 0.9998 0 0.9998"></polygon>
    </defs>
    <g id="Page-1" stroke="none" stroke-width="1" fill="none" fill-rule="evenodd">
        <g id="upload-4-files-mistake" transform="translate(-672.000000, -334.000000)">
            <g id="error" transform="translate(672.000000, 333.000000)">
                <g id="Group-3" transform="translate(0.000000, 0.032800)">
                    <mask id="mask-2" fill="white">
                        <use xlink:href="#path-1"></use>
                    </mask>
                    <g id="Clip-2"></g>
                    <path d="M11.0163,0.9675 C4.9323,0.9675 -0.0007,5.8995 -0.0007,11.9835 C-0.0007,18.0685 4.9323,22.9995 11.0163,22.9995 C17.1003,22.9995 22.0333,18.0685 22.0333,11.9835 C22.0333,5.8995 17.1003,0.9675 11.0163,0.9675" id="Fill-1" fill="#E71D32" mask="url(#mask-2)"></path>
                </g>
                <mask id="mask-4" fill="white">
                    <use xlink:href="#path-3"></use>
                </mask>
                <g id="Clip-5"></g>
                <polygon id="Fill-4" fill="#F9F9FB" mask="url(#mask-4)" points="10.016 17.0158 12.016 17.0158 12.016 15.0158 10.016 15.0158"></polygon>
                <polygon id="Fill-6" fill="#F9F9FB" mask="url(#mask-4)" points="10.0163 6.016 10.0163 10.016 10.6223 13.589 11.4103 13.589 12.0163 10.016 12.0163 6.016"></polygon>
            </g>
        </g>
    </g>
</svg>