<?xml version="1.0" encoding="utf-8"?>
<!-- Generator: Adobe Illustrator 21.0.2, SVG Export Plug-In . SVG Version: 6.00 Build 0)  -->
<svg version="1.1" id="Layer_1" xmlns="http://www.w3.org/2000/svg" xmlns:xlink="http://www.w3.org/1999/xlink" x="0px" y="0px"
	 viewBox="0 0 32 32" style="enable-background:new 0 0 32 32;" xml:space="preserve">
<path d="M12,1C5.9,1,1,5.9,1,12s4.9,11,11,11s11-4.9,11-11S18.1,1,12,1z M12,21c-5,0-9-4-9-9s4-9,9-9s9,4,9,9S17,21,12,21z M21,24
	l3-3l7,7l-3,3L21,24z M21,20c0.6,0,1,0.4,1,1s-0.4,1-1,1s-1-0.4-1-1S20.4,20,21,20z"/>
</svg>
